<svg xmlns="http://www.w3.org/2000/svg" viewBox="310.450176 289.9968 407.552 313.344" style="max-height: 500px" width="407.552" height="313.344"><path fill="none" d="M0 0h1024v1024H0z"/><path fill="#007a35" d="m524.14 356.605 1.933.836c2.067.899 4.122 1.822 6.177 2.747q2.162.948 4.326 1.89 4.47 1.953 8.925 3.932c4.432 1.965 8.88 3.895 13.331 5.814l2.12.914 4.11 1.773c4.983 2.152 9.96 4.321 14.938 6.489-7.205 18.454-19.873 34.086-33.441 48.266-2.558 2.66-2.558 2.66-4.684 5.398-2.889 3.6-6.367 6.357-9.875 9.336l-2.777 2.473C505.2 467.68 476.476 481.953 445 488l-3.457.68c-10.19 1.732-20.236 1.461-30.543 1.32v-22l-9-3a216 216 0 0 1-6.21-2.61l-3.473-1.515-1.82-.801c-3.276-1.442-6.557-2.87-9.837-4.3l-2.095-.916c-8.483-3.702-16.993-7.342-25.502-10.983L330 434v-5c8.152-4.251 16.453-7.96 24.972-11.404 3.738-1.512 7.468-3.042 11.2-4.569l2.403-.982c9.434-3.858 18.837-7.793 28.238-11.733l2.717-1.138a12566 12566 0 0 0 36.339-15.295q5.606-2.37 11.215-4.73c8.663-3.649 17.317-7.313 25.943-11.046 3.939-1.7 7.883-3.388 11.827-5.074a859 859 0 0 0 5.59-2.424 808 808 0 0 1 7.755-3.335l2.26-1.01c8.206-3.433 15.52-3.264 23.682.345"/><path fill="#007a35" d="M635 404a199 199 0 0 1 17.77 6.617l2.43 1.028q3.809 1.61 7.612 3.23 3.78 1.601 7.561 3.2 2.44 1.035 4.876 2.077c3.507 1.499 7.012 2.968 10.588 4.294l3.3 1.25 2.815 1.008C694 428 694 428 694.804 430.644L695 433c-8.758 4.525-17.677 8.54-26.75 12.375l-3.883 1.652A4769 4769 0 0 1 655 451q-.185 8.593-.275 17.188-.037 2.921-.102 5.842c-.061 2.806-.09 5.61-.111 8.415l-.078 2.624c-.003 6.128 1.289 8.57 5.566 12.931.523 3.113-.172 4.843-1 8a101 101 0 0 1-3 3c.5 3.702 1.65 7.147 2.813 10.688 1.75 5.596 3.165 11.214 4.437 16.937l.53 2.37c.665 3.057 1.22 5.867 1.22 9.005h-30c1.123-13.482 1.123-13.482 2.664-18.281l.961-3.11 1-3.109q1.002-3.136 1.977-6.281l.885-2.752c.55-2.648.471-3.964-.487-6.467l-2-3c-.482-3.045-.462-5.953 0-9 1.875-2.562 1.875-2.562 4-4h2v-37c-9.036 3.9-9.036 3.9-18.07 7.808l-3.414 1.47-3.492 1.507A47 47 0 0 1 614 468l.034 2.059c.11 7.105.186 14.211.24 21.317q.039 3.972.103 7.944c.061 3.818.09 7.635.111 11.453l.078 3.556c.003 8.459-1.472 15.528-7.588 21.717-13.07 11.257-31.66 15.487-48.165 18.704l-3.275.639C514.897 562.937 457.478 563.204 422 539c-4.084-3.406-8.113-6.914-10-12-.125-3.25-.125-3.25 0-6l2.48.438c29.21 4.432 59.768 1.851 87.52-8.438l4.922-1.742C531.953 502.223 554.136 489.425 575 473l1.625-1.266C592.82 459.01 608.108 443.842 620 427l1.444-2.028C626.28 418.144 630.93 411.317 635 404"/><path fill="#ffa906" d="M645 301h2c2.44 10.089 4.43 20.227 6.32 30.43l.922 4.938q.958 5.136 1.91 10.272 1.22 6.561 2.445 13.122a17224 17224 0 0 1 2.796 15.006q.63 3.379 1.256 6.759l.72 3.871A286 286 0 0 1 665 396c-3.088-1.436-5.713-3.154-8.441-5.187l-2.518-1.868-2.604-1.945-5.128-3.812-2.288-1.708A138 138 0 0 0 639 378l-.691 2.445c-1.638 4.448-3.854 8.35-6.246 12.43-.486.831-.97 1.663-1.47 2.52C623.599 407.23 615.823 418.452 607 429l-2.34 2.898C593.844 445.163 581.683 457.685 568 468l-1.628 1.254c-41.465 31.88-92.555 50.882-145.306 45.32-4.102-.572-8.075-1.474-12.066-2.574l-2.433-.668C389.25 506.397 372.471 499.189 359 487l-2.395-1.969c-5.3-4.475-9.762-9.397-14.105-14.781l-1.566-1.934c-2.6-3.305-4.633-6.257-5.934-10.316l2.164 2.176c24.691 24.648 52.7 37.716 87.899 38.199 32.532-.093 65.576-12.563 91.937-31.375l1.948-1.383C528.214 458.983 536.814 451.93 545 444l1.53-1.469C569.088 420.83 589.473 392.082 599 362l-2.246-.148c-9.291-.66-18.511-1.712-27.754-2.852 3.557-3.88 7.66-6.733 11.938-9.75a737 737 0 0 0 20.5-15.187A1191 1191 0 0 1 622 318.625c11.965-8.262 11.965-8.262 23-17.625"/><path fill="#375B7D" d="m644 492 3 1-7 6c.96-3.837 1.236-4.597 4-7"/></svg>